<svg width="17" height="13" viewBox="0 0 17 13" fill="none" xmlns="http://www.w3.org/2000/svg">
<path d="M1 5.5C0.447715 5.5 0 5.94772 0 6.5C0 7.05228 0.447715 7.5 1 7.5V5.5ZM11.8969 0.338378C11.5315 -0.0757457 10.8996 -0.115241 10.4854 0.250162C10.0713 0.615566 10.0318 1.2475 10.3972 1.66162L11.8969 0.338378ZM16 6.5L16.7498 7.16162C17.0834 6.7836 17.0834 6.2164 16.7498 5.83838L16 6.5ZM10.3972 11.3384C10.0318 11.7525 10.0713 12.3844 10.4854 12.7498C10.8996 13.1152 11.5315 13.0757 11.8969 12.6616L10.3972 11.3384ZM1 7.5H15.5588V5.5H1V7.5ZM15.2502 5.83838L10.3972 11.3384L11.8969 12.6616L16.7498 7.16162L15.2502 5.83838ZM10.3972 1.66162L12.8237 4.41162L14.3234 3.08838L11.8969 0.338378L10.3972 1.66162ZM12.8237 4.41162L15.2502 7.16162L16.7498 5.83838L14.3234 3.08838L12.8237 4.41162Z" fill="#1d1d1d"/>
</svg>
