<svg width="48" height="50" fill="none" xmlns="http://www.w3.org/2000/svg"><path d="M33.552 36.763V13.945c0-1.999-1.58-3.619-3.528-3.619H5.292c-1.948 0-3.528 1.62-3.528 3.619v22.818c0 1.998 1.58 3.619 3.528 3.619h24.732c1.948 0 3.528-1.62 3.528-3.619zM33.6 17.834v15.028l9.708 5.747a1.942 1.942 0 001.985.004c.302-.178.553-.435.727-.745.174-.31.265-.661.264-1.019V13.846c0-.357-.09-.709-.264-1.018a2.005 2.005 0 00-.727-.746 1.941 1.941 0 00-1.985.004L33.6 17.834z" stroke="#1264A3" stroke-width="2.5" stroke-miterlimit="10"></path><path d="M25.2 26.326a8.14 8.14 0 01-2.91 3.929 7.82 7.82 0 01-4.584 1.491 7.82 7.82 0 01-4.585-1.491 8.142 8.142 0 01-2.91-3.929" stroke="#1264A3" stroke-width="2.45" stroke-linecap="round" stroke-linejoin="round"></path><path d="M14.58 23.95c1 0 1.812-.831 1.812-1.858 0-1.026-.811-1.858-1.812-1.858-1 0-1.812.832-1.812 1.858 0 1.027.811 1.859 1.812 1.859zM20.448 23.95c1 0 1.812-.831 1.812-1.858 0-1.026-.811-1.858-1.812-1.858-1 0-1.812.832-1.812 1.858 0 1.027.811 1.859 1.812 1.859z" fill="#1264a3"></path></svg>