<svg width="48" height="48" class="u-icon-fill--secondary" fill="#1264a3" xmlns="http://www.w3.org/2000/svg"><path d="M21.348 38.184H6a2.1 2.1 0 01-2.1-2.1V6A2.112 2.112 0 016 3.9h30.084a2.1 2.1 0 012.1 2.1v19.764a1.5 1.5 0 103 0V6a5.112 5.112 0 00-5.1-5.1H6A5.112 5.112 0 00.9 6v30.084a5.1 5.1 0 005.1 5.1h15.348a1.5 1.5 0 100-3zM38.04 37.38A2.064 2.064 0 0136 35.316c0-.34.087-.674.252-.972H36a3.24 3.24 0 103.24 3.24c.012-.18.012-.36 0-.54a2.028 2.028 0 01-1.2.336z" fill="#1264a3"></path><path d="M47.028 37.02a12 12 0 00-22.092 0 1.44 1.44 0 000 1.092 12 12 0 0022.092 0 1.56 1.56 0 000-1.092zM36 42.444a8.964 8.964 0 01-7.992-4.872 8.987 8.987 0 0115.984 0A8.964 8.964 0 0136 42.444zM27.708 25.908a1.44 1.44 0 000-2.88h-2.592l.744-5.112h2.94a1.442 1.442 0 001.571-1.434 1.44 1.44 0 00-1.571-1.434h-2.52l.348-2.34a1.44 1.44 0 10-2.844-.42l-.408 2.76h-3.78l.348-2.34a1.44 1.44 0 00-2.844-.42l-.408 2.76H13.2a1.438 1.438 0 00-1.449 2.015 1.44 1.44 0 001.449.853h3.096l-.744 5.112h-3.48a1.44 1.44 0 000 2.88h3.036l-.516 3.468a1.44 1.44 0 001.2 1.632h.216a1.44 1.44 0 001.416-1.2l.576-3.9h3.78l-.516 3.468a1.44 1.44 0 001.2 1.632h.216a1.428 1.428 0 001.416-1.2l.576-3.888 3.036-.012zm-9.276-2.88l.768-5.112h3.78l-.744 5.112h-3.804z" fill="#1264a3"></path></svg>